{"accessors":[{"bufferView":0,"componentType":5123,"count":23808,"max":[5045],"min":[0],"type":"SCALAR"},{"bufferView":1,"componentType":5126,"count":5046,"max":[4.72519588470459,4.931971073150635,4.842352390289307],"min":[-4.509030342102051,-5.102631092071533,-4.673867225646973],"type":"VEC3"},{"bufferView":2,"componentType":5126,"count":5046,"max":[0.9995180368423462,0.9993945360183716,0.9991329312324524],"min":[-0.9999268651008606,-0.99947190284729,-0.9998577833175659],"type":"VEC3"},{"bufferView":3,"componentType":5126,"count":5046,"max":[1.0000001192092896,1.0],"min":[0.0,-1.1920928955078125e-07],"type":"VEC2"},{"bufferView":4,"componentType":5123,"count":2880,"max":[558],"min":[0],"type":"SCALAR"},{"bufferView":5,"componentType":5126,"count":559,"max":[5.224399566650391,5.224400997161865,5.224397659301758],"min":[-5.224396228790283,-5.224400997161865,-5.22439432144165],"type":"VEC3"},{"bufferView":6,"componentType":5126,"count":559,"max":[1.0,1.0,1.0],"min":[-1.0,-1.0,-1.0],"type":"VEC3"},{"bufferView":7,"componentType":5126,"count":559,"max":[1.0000001192092896,1.0],"min":[0.0,0.0],"type":"VEC2"},{"bufferView":8,"componentType":5121,"count":72,"max":[55],"min":[0],"type":"SCALAR"},{"bufferView":9,"componentType":5126,"count":56,"max":[0.009999998845160007,0.009999994188547134,0.009999999776482582],"min":[-0.009999998845160007,-0.009999997913837433,-0.009999997913837433],"type":"VEC3"},{"bufferView":10,"componentType":5126,"count":56,"max":[0.6785982847213745,0.8628562688827515,0.6785984039306641],"min":[-0.6785984039306641,-0.8628562688827515,-0.6785983443260193],"type":"VEC3"},{"bufferView":11,"componentType":5126,"count":56,"max":[1.0,1.0],"min":[0.0,0.0],"type":"VEC2"}],"asset":{"generator":"Soft8Soft Verge3D for Blender add-on","version":"2.0"},"bufferViews":[{"buffer":0,"byteLength":47616,"byteOffset":0,"target":34963},{"buffer":0,"byteLength":60552,"byteOffset":47616,"target":34962},{"buffer":0,"byteLength":60552,"byteOffset":108168,"target":34962},{"buffer":0,"byteLength":40368,"byteOffset":168720,"target":34962},{"buffer":0,"byteLength":5760,"byteOffset":209088,"target":34963},{"buffer":0,"byteLength":6708,"byteOffset":214848,"target":34962},{"buffer":0,"byteLength":6708,"byteOffset":221556,"target":34962},{"buffer":0,"byteLength":4472,"byteOffset":228264,"target":34962},{"buffer":0,"byteLength":72,"byteOffset":232736,"target":34963},{"buffer":0,"byteLength":672,"byteOffset":232808,"target":34962},{"buffer":0,"byteLength":672,"byteOffset":233480,"target":34962},{"buffer":0,"byteLength":448,"byteOffset":234152,"target":34962}],"buffers":[{"byteLength":234600,"uri":"123.bin"}],"cameras":[{"extensions":{"S8S_v3d_camera_data":{"controls":"ORBIT","enablePan":true,"moveSpeed":1.0,"orbitMaxDistance":50.0,"orbitMaxPolarAngle":1.832595705986023,"orbitMaxZoom":100.0,"orbitMinDistance":14.0,"orbitMinPolarAngle":0.7853981852531433,"orbitMinZoom":0.009999999776482582,"orbitTarget":[0.0,0.0,-0.0],"rotateSpeed":1.0,"viewportFitInitialAspect":1.7777777777777777,"viewportFitType":"AUTO"}},"name":"Camera","perspective":{"aspectRatio":1.7777777777777777,"yfov":0.39959652046304894,"zfar":100.0,"znear":0.10000000149011612},"type":"perspective"}],"extensions":{"S8S_v3d_data":{"lights":[{"color":[1.0,1.0,1.0],"intensity":1.0,"name":"Light","profile":"blender","shadow":{"bias":-0.0018,"cameraFar":100,"cameraFov":0,"cameraNear":0.1,"csm":{"maxDistance":1000.0},"enabled":true,"expBias":2.5,"mapSize":1024,"radius":1.0,"slopeScaledBias":2.5},"type":"directional"}]}},"extensionsUsed":["S8S_v3d_texture_data","S8S_v3d_material_data","S8S_v3d_camera_data","S8S_v3d_data","S8S_v3d_mesh_data","S8S_v3d_node_data","S8S_v3d_scene_data"],"images":[{"uri":"world.topo.bathy.jpg"},{"uri":"clouds earth.png"}],"materials":[{"extensions":{"S8S_v3d_material_data":{"nodeGraph":{"edges":[{"fromNode":5,"fromOutput":0,"toInput":4,"toNode":1},{"fromNode":5,"fromOutput":0,"toInput":0,"toNode":6},{"fromNode":6,"fromOutput":0,"toInput":7,"toNode":4},{"fromNode":3,"fromOutput":0,"toInput":20,"toNode":4},{"fromNode":1,"fromOutput":0,"toInput":0,"toNode":2},{"fromNode":2,"fromOutput":0,"toInput":0,"toNode":4},{"fromNode":6,"fromOutput":0,"toInput":2,"toNode":3},{"fromNode":4,"fromOutput":0,"toInput":0,"toNode":0},{"fromNode":7,"fromOutput":0,"toInput":1,"toNode":1}],"nodes":[{"inputs":[[0,0,0,0],[0,0,0,0],[0.0,0.0,0.0]],"is_active_output":true,"name":"Material Output","outputs":[],"type":"OUTPUT_MATERIAL_BL"},{"inputs":[0.5,0.800000011920929,2.0,1.0,[0.800000011920929,0.800000011920929,0.800000011920929,1.0]],"is_active_output":false,"name":"Hue Saturation Value","outputs":[[0.0,0.0,0.0,0.0]],"type":"HUE_SAT_BL"},{"inputs":[[1.0,1.0,1.0,1.0],0.0,0.0020000000949949026],"is_active_output":false,"name":"Bright/Contrast","outputs":[[0.0,0.0,0.0,0.0]],"type":"BRIGHTCONTRAST_BL"},{"inputs":[0.16511666774749756,1.0,1.0,1.0,1.0,[0.0,0.0,0.0]],"invert":false,"is_active_output":false,"name":"Bump","outputs":[[0.0,0.0,0.0]],"type":"BUMP_BL"},{"inputs":[[0.800000011920929,0.800000011920929,0.800000011920929,1.0],0.0,[1.0,0.20000000298023224,0.10000000149011612],[0.800000011920929,0.800000011920929,0.800000011920929,1.0],0.0,0.05000000074505806,0.0,0.5,0.0,0.0,0.0,0.0,0.0,0.029999999329447746,1.4500000476837158,0.0,0.0,[0.0,0.0,0.0,1.0],1.0,1.0,[0.0,0.0,0.0],[0.0,0.0,0.0],[0.0,0.0,0.0]],"is_active_output":false,"name":"Principled BSDF","outputs":[[0,0,0,0]],"type":"BSDF_PRINCIPLED_BL"},{"inputs":[[0.0,0.0,0.0]],"is_active_output":false,"name":"Image Texture","outputs":[[0.0,0.0,0.0,0.0],0.0],"projection":"FLAT","projectionBlend":0.0,"texture":0,"type":"TEX_IMAGE_BL"},{"curve":{"input":[0.21739128232002258,0.7644928097724915],"interpolation":"LINEAR","output":[0.0,0.0,0.0,1.0,1.0,1.0,1.0,1.0]},"inputs":[0.5],"is_active_output":false,"name":"ColorRamp","outputs":[[0.0,0.0,0.0,0.0],0.0],"type":"VALTORGB_BL"},{"inputs":[],"is_active_output":false,"name":"baohedu","outputs":[0.5],"type":"VALUE_BL"}]},"useCastShadows":true}},"name":"地球-mat"},{"alphaMode":"BLEND","doubleSided":true,"extensions":{"S8S_v3d_material_data":{"blendMode":{"blendEquation":32774,"dstRGB":771,"srcRGB":1},"depthWrite":false,"nodeGraph":{"edges":[{"fromNode":2,"fromOutput":0,"toInput":0,"toNode":5},{"fromNode":3,"fromOutput":0,"toInput":0,"toNode":1},{"fromNode":5,"fromOutput":0,"toInput":0,"toNode":0},{"fromNode":5,"fromOutput":0,"toInput":0,"toNode":3},{"fromNode":4,"fromOutput":0,"toInput":1,"toNode":3},{"fromNode":0,"fromOutput":0,"toInput":2,"toNode":3}],"nodes":[{"inputs":[[0.800000011920929,0.800000011920929,0.800000011920929,1.0],0.0,[1.0,0.20000000298023224,0.10000000149011612],[0.800000011920929,0.800000011920929,0.800000011920929,1.0],0.0,0.0,0.0,0.4272727370262146,0.0,0.0,0.0,0.5,0.0,0.029999999329447746,1.4500000476837158,0.0,0.0,[0.0,0.0,0.0,1.0],1.0,1.0,[0.0,0.0,0.0],[0.0,0.0,0.0],[0.0,0.0,0.0]],"is_active_output":false,"name":"Principled BSDF","outputs":[[0,0,0,0]],"type":"BSDF_PRINCIPLED_BL"},{"inputs":[[0,0,0,0],[0,0,0,0],[0.0,0.0,0.0]],"is_active_output":true,"name":"Material Output","outputs":[],"type":"OUTPUT_MATERIAL_BL"},{"inputs":[[0.0,0.0,0.0]],"is_active_output":false,"name":"Image Texture","outputs":[[0.0,0.0,0.0,0.0],0.0],"projection":"FLAT","projectionBlend":0.0,"texture":1,"type":"TEX_IMAGE_BL"},{"inputs":[0.5,[0,0,0,0],[0,0,0,0]],"is_active_output":false,"name":"Mix Shader","outputs":[[0,0,0,0]],"type":"MIX_SHADER_BL"},{"inputs":[[1.0,1.0,1.0,1.0]],"is_active_output":false,"name":"Transparent BSDF","outputs":[[0,0,0,0]],"type":"BSDF_TRANSPARENT_BL"},{"curve":{"input":[0.48913049697875977,1.0],"interpolation":"LINEAR","output":[0.0,0.0,0.0,1.0,0.7633686661720276,0.7633686661720276,0.7633686661720276,1.0]},"inputs":[0.5],"is_active_output":false,"name":"ColorRamp","outputs":[[0.0,0.0,0.0,0.0],0.0],"type":"VALTORGB_BL"}]},"renderSide":"DOUBLE","useCastShadows":false}},"name":"大气-mat"},{"extensions":{"S8S_v3d_material_data":{"nodeGraph":{"edges":[{"fromNode":1,"fromOutput":0,"toInput":0,"toNode":0}],"nodes":[{"inputs":[[0,0,0,0],[0,0,0,0]],"is_active_output":true,"name":"World Output","outputs":[],"type":"OUTPUT_WORLD_BL"},{"inputs":[[0.05087608844041824,0.05087608844041824,0.05087608844041824,1.0],1.0],"is_active_output":false,"name":"Background","outputs":[[0,0,0,0]],"type":"BACKGROUND_BL"}]},"useCastShadows":true}},"name":"Verge3D_Environment_World"},{"emissiveFactor":[0.0,0.0,0.0],"extensions":{"S8S_v3d_material_data":{"nodeGraph":{"edges":[{"fromNode":1,"fromOutput":0,"toInput":0,"toNode":0}],"nodes":[{"inputs":[[0,0,0,0],[0,0,0,0],0.0],"is_active_output":true,"name":"Material Output","outputs":[],"type":"OUTPUT_MATERIAL_BL"},{"inputs":[[0.800000011920929,0.800000011920929,0.800000011920929,1.0],0.0,[0.0,0.0,0.0]],"is_active_output":false,"name":"Diffuse BSDF","outputs":[[0,0,0,0]],"type":"BSDF_DIFFUSE_BL"}]},"useCastShadows":true,"useShadows":true}},"name":"v3d_default_material"}],"meshes":[{"extensions":{"S8S_v3d_mesh_data":{"colorLayers":{},"uvLayers":{"UVMap":"TEXCOORD_0"}}},"name":"Sphere","primitives":[{"attributes":{"NORMAL":2,"POSITION":1,"TEXCOORD_0":3},"indices":0,"material":0,"mode":4}]},{"extensions":{"S8S_v3d_mesh_data":{"colorLayers":{},"uvLayers":{"UVMap":"TEXCOORD_0"}}},"name":"Sphere.001","primitives":[{"attributes":{"NORMAL":6,"POSITION":5,"TEXCOORD_0":7},"indices":4,"material":1,"mode":4}]},{"extensions":{"S8S_v3d_mesh_data":{"colorLayers":{},"uvLayers":{}}},"name":"Sphere.002","primitives":[{"attributes":{"NORMAL":10,"POSITION":9,"TEXCOORD_0":11},"indices":8,"material":3,"mode":4}]}],"nodes":[{"extensions":{"S8S_v3d_node_data":{"frustumCulling":true,"groupNames":[],"hidden":false,"renderOrder":0,"useShadows":true}},"mesh":2,"name":"汉正Marker","translation":[2.626023769378662,3.562812089920044,3.519902229309082]},{"children":[0],"name":"v3d_Proxy_Node_0_汉正Marker","rotation":[0.0,0.9852084517478943,0.0,0.1713603436946869],"translation":[-0.0,-0.9830378293991089,-0.0]},{"children":[1],"extensions":{"S8S_v3d_node_data":{"frustumCulling":true,"groupNames":[],"hidden":false,"renderOrder":0,"useShadows":true}},"mesh":0,"name":"地球","rotation":[-0.0,-0.9852084517478943,0.0,0.1713603436946869],"translation":[0.0,0.9830378293991089,-0.0]},{"extensions":{"S8S_v3d_node_data":{"frustumCulling":true,"groupNames":[],"hidden":false,"renderOrder":0,"useShadows":true}},"mesh":1,"name":"大气","translation":[0.0,0.9830378293991089,-0.0]},{"extensions":{"S8S_v3d_node_data":{"frustumCulling":true,"groupNames":["Scene"],"hidden":false,"light":0,"renderOrder":0}},"name":"Sun","rotation":[0.48355773091316223,-0.8501315712928772,-0.20842678844928741,0.0025589833967387676],"scale":[1.0,0.9999998807907104,0.9999999403953552],"translation":[-9.693638801574707,23.030330657958984,-43.85439682006836]},{"children":[4],"name":"v3d_Proxy_Node_0_Sun","rotation":[0.02543562836945057,0.9664081931114197,0.23297086358070374,0.10551184415817261],"scale":[1.0000001192092896,1.0000001192092896,1.0],"translation":[-4.38260303781135e-06,-7.081816875142977e-06,-49.67691421508789]},{"camera":0,"children":[5],"extensions":{"S8S_v3d_node_data":{"frustumCulling":true,"groupNames":["Scene"],"hidden":false,"renderOrder":0}},"name":"Camera","rotation":[-0.025435632094740868,-0.9664082527160645,-0.23297089338302612,0.10551182925701141],"scale":[0.9999999403953552,0.9999999403953552,0.9999998807907104],"translation":[-9.542118072509766,22.635658264160156,-43.1783561706543]}],"samplers":[{}],"scene":0,"scenes":[{"extensions":{"S8S_v3d_scene_data":{"aaMethod":"AUTO","iblEnvironmentMode":"PMREM","physicallyCorrectLights":true,"pmremMaxTileSize":512,"shadowMap":{"esmDistanceScale":1.0,"renderReverseSided":false,"renderSingleSided":true,"type":"PCFPOISSON"},"toneMapping":{"type":"filmicBlender"},"useHDR":true,"worldMaterial":2}},"extras":{"animFrameRate":24,"coordSystem":"Z_UP_RIGHT","customProps":{"NWBusyDrawing":"","NWLazySource":"ColorRamp","NWLazyTarget":"Transparent BSDF","mergedBake":0}},"name":"Scene","nodes":[2,3,6]}],"textures":[{"extensions":{"S8S_v3d_texture_data":{"colorSpace":"srgb"}},"name":"world.topo.bathy.jpg","sampler":0,"source":0},{"extensions":{"S8S_v3d_texture_data":{"colorSpace":"non-color"}},"name":"clouds earth.png","sampler":0,"source":1}]}
