<?xml version="1.0" standalone="no"?>
<!DOCTYPE svg PUBLIC "-//W3C//DTD SVG 1.1//EN" "http://www.w3.org/Graphics/SVG/1.1/DTD/svg11.dtd" >
<!--
2013-9-30: Created.
-->
<svg>
<metadata>
Created by iconfont
</metadata>
<defs>

<font id="iconfont" horiz-adv-x="1024" >
  <font-face
    font-family="iconfont"
    font-weight="500"
    font-stretch="normal"
    units-per-em="1024"
    ascent="896"
    descent="-128"
  />
    <missing-glyph />
    
    <glyph glyph-name="ZHicon-" unicode="&#58921;" d="M921.6 128h-76.8l-87.04 87.04C793.6 230.4 819.2 266.24 819.2 307.2c0 56.32-46.08 102.4-102.4 102.4s-102.4-46.08-102.4-102.4c0-40.96 25.6-76.8 61.44-92.16L588.8 128h-76.8c-28.16 0-51.2-23.04-51.2-51.2v-102.4c0-28.16 23.04-51.2 51.2-51.2h409.6c28.16 0 51.2 23.04 51.2 51.2v102.4c0 28.16-23.04 51.2-51.2 51.2z m-256 179.2c0 28.16 23.04 51.2 51.2 51.2s51.2-23.04 51.2-51.2-23.04-51.2-51.2-51.2-51.2 23.04-51.2 51.2z m51.2-120.32l58.88-58.88h-117.76l58.88 58.88z m204.8-186.88c0-15.36-10.24-25.6-25.6-25.6H537.6c-15.36 0-25.6 10.24-25.6 25.6v51.2c0 15.36 10.24 25.6 25.6 25.6h358.4c15.36 0 25.6-10.24 25.6-25.6v-51.2zM716.8 614.4c0 12.8-12.8 25.6-25.6 25.6H230.4c-12.8 0-25.6-12.8-25.6-25.6s12.8-25.6 25.6-25.6h460.8c12.8 0 25.6 12.8 25.6 25.6zM230.4 460.8c-12.8 0-25.6-12.8-25.6-25.6s12.8-25.6 25.6-25.6h358.4c12.8 0 25.6 12.8 25.6 25.6s-12.8 25.6-25.6 25.6H230.4zM435.2 256H230.4c-12.8 0-25.6-12.8-25.6-25.6s12.8-25.6 25.6-25.6h204.8c12.8 0 25.6 12.8 25.6 25.6s-12.8 25.6-25.6 25.6zM368.64 25.6H153.6c-28.16 0-51.2 23.04-51.2 51.2V742.4c0 28.16 23.04 51.2 51.2 51.2h614.4c28.16 0 51.2-23.04 51.2-51.2v-330.24c0-15.36 10.24-25.6 25.6-25.6s25.6 10.24 25.6 25.6V742.4c0 56.32-46.08 102.4-102.4 102.4H153.6C97.28 844.8 51.2 798.72 51.2 742.4v-665.6c0-56.32 46.08-102.4 102.4-102.4h215.04c12.8 2.56 23.04 12.8 23.04 25.6s-10.24 23.04-23.04 25.6z"  horiz-adv-x="1024" />

    
    <glyph glyph-name="shebeiguanli" unicode="&#58953;" d="M627.2 32H544c-12.8 0-25.6 12.8-25.6 25.6v96l44.8 6.4v51.2H64v64h454.4V320H83.2c-12.8 0-25.6 12.8-25.6 25.6V736c0 12.8 12.8 25.6 25.6 25.6h787.2c12.8 0 25.6-12.8 25.6-25.6v-230.4c19.2 0 12.8-12.8 38.4-25.6V774.4c0 12.8-12.8 25.6-25.6 25.6H51.2c-12.8 0-25.6-12.8-25.6-25.6l-6.4-537.6c0-44.8 25.6-83.2 102.4-83.2h211.2c12.8 0 25.6-12.8 25.6-25.6v-102.4H281.6c-12.8 0-25.6-12.8-25.6-25.6 0-6.4 0-19.2 6.4-19.2 6.4-6.4 12.8-6.4 19.2-12.8h345.6c6.4 0 12.8 6.4 19.2 12.8 6.4 6.4 6.4 12.8 6.4 19.2 0 6.4 0 19.2-6.4 19.2-6.4 6.4-12.8 6.4-19.2 12.8z m-147.2 0h-64c-12.8 0-25.6 12.8-25.6 25.6V128c0 12.8 12.8 25.6 25.6 25.6h38.4c12.8 0 25.6-12.8 25.6-25.6v-96zM768 192c-44.8 0-76.8 32-76.8 76.8s32 76.8 76.8 76.8 76.8-32 76.8-76.8c6.4-38.4-32-76.8-76.8-76.8z m0 128c-25.6 0-51.2-25.6-51.2-51.2s25.6-51.2 51.2-51.2 51.2 25.6 51.2 51.2c0 12.8-6.4 25.6-12.8 38.4-6.4 12.8-19.2 12.8-38.4 12.8zM768 51.2c-12.8 0-32 6.4-44.8 12.8-12.8 12.8-19.2 25.6-19.2 44.8-6.4 0-12.8 6.4-12.8 6.4-12.8-12.8-25.6-19.2-44.8-19.2-25.6 0-44.8 12.8-57.6 38.4-12.8 25.6-6.4 51.2 12.8 64 0 6.4-6.4 12.8-6.4 12.8-32 0-64 25.6-64 64 0 32 25.6 64 64 64 0 6.4 6.4 12.8 6.4 12.8-19.2 25.6-19.2 64 6.4 83.2 25.6 25.6 57.6 25.6 83.2 0l19.2 12.8c0 32 25.6 64 64 64 32 0 64-25.6 64-64l12.8-6.4c25.6 19.2 64 19.2 83.2-6.4 25.6-19.2 25.6-57.6 6.4-83.2 0-6.4 6.4-12.8 6.4-12.8 32 0 64-25.6 64-64 0-32-25.6-64-64-64 0-6.4-6.4-12.8-6.4-12.8 19.2-25.6 19.2-64 0-83.2-25.6-25.6-64-25.6-83.2 0h-12.8c0-19.2-6.4-32-19.2-44.8-19.2-19.2-38.4-25.6-57.6-19.2z m-83.2 96h12.8l38.4-19.2c6.4 0 12.8-6.4 12.8-12.8s6.4-12.8 0-19.2c0-6.4 0-19.2 6.4-25.6 6.4-6.4 6.4-6.4 12.8-6.4s12.8 0 19.2 6.4c6.4 6.4 6.4 12.8 0 19.2v19.2c0 6.4 6.4 6.4 12.8 12.8 12.8 6.4 32 6.4 44.8 19.2 6.4 6.4 12.8 6.4 19.2 0 6.4 0 12.8-6.4 12.8-12.8 0 0 0-6.4 6.4-6.4 6.4-6.4 12.8-6.4 25.6-6.4 6.4 0 12.8 12.8 12.8 19.2 0 6.4-6.4 19.2-12.8 19.2s-12.8 6.4-12.8 12.8v19.2c6.4 12.8 12.8 25.6 19.2 44.8 0 6.4 6.4 12.8 12.8 12.8s12.8 6.4 19.2 0h6.4c6.4 0 12.8 0 12.8 6.4 6.4 6.4 6.4 12.8 6.4 12.8 0 12.8-12.8 19.2-19.2 19.2h-25.6c-6.4 0-12.8 6.4-12.8 12.8-6.4 12.8-6.4 25.6-19.2 38.4v38.4c0 6.4 6.4 12.8 12.8 12.8 6.4 6.4 12.8 12.8 12.8 25.6s-6.4 19.2-19.2 19.2c-12.8 0-19.2-6.4-25.6-12.8 0-6.4-6.4-12.8-12.8-12.8h-19.2c-12.8 6.4-25.6 12.8-44.8 19.2-6.4 0-12.8 6.4-12.8 12.8s-6.4 12.8 0 19.2v6.4c0 12.8-12.8 19.2-19.2 19.2-12.8 0-19.2-12.8-19.2-19.2v-25.6c0-6.4-6.4-6.4-12.8-12.8-12.8-6.4-25.6-6.4-38.4-19.2-6.4-6.4-12.8-6.4-19.2 0-6.4 0-12.8 6.4-12.8 12.8 0 0 0 6.4-6.4 6.4-6.4 6.4-19.2 6.4-32 0-6.4-6.4-12.8-12.8-12.8-25.6 0-6.4 6.4-12.8 12.8-12.8s12.8-6.4 12.8-12.8v-19.2l-19.2-38.4c0-6.4-6.4-12.8-12.8-12.8s-12.8-6.4-19.2 0h-6.4c-12.8 0-19.2-12.8-19.2-19.2 0-12.8 12.8-19.2 19.2-19.2h25.6c6.4 0 6.4-6.4 12.8-12.8 6.4-12.8 6.4-32 19.2-44.8 6.4-6.4 6.4-12.8 0-19.2 0-6.4-6.4-12.8-12.8-12.8s-12.8-6.4-12.8-12.8 0-12.8 6.4-19.2c6.4-6.4 6.4-6.4 12.8-6.4s12.8 6.4 19.2 12.8c0 6.4 6.4 12.8 12.8 12.8l19.2-12.8z"  horiz-adv-x="1024" />

    
    <glyph glyph-name="waijingzhengguanli" unicode="&#59241;" d="M841.292695 650.51424H182.809633c-8.697911 0-15.656241-7.060658-15.65624-15.656241v-501.715998c0-8.697911 7.060658-15.656241 15.65624-15.656241h658.483062c8.697911 0 15.656241 6.958329 15.656241 15.656241V634.857999c0 8.697911-7.060658 15.656241-15.656241 15.656241z m-15.758569-501.715999H198.465874V619.201759h627.068252v-470.403518zM229.778355 164.55681h564.44329c8.697911 0 15.656241 6.958329 15.65624 15.656241V587.786949c0 8.697911-6.958329 15.656241-15.65624 15.656241H229.880684c-8.697911 0-15.656241-7.060658-15.656241-15.656241v-407.573898c-0.102328-8.697911 6.958329-15.656241 15.553912-15.656241z m407.676227 407.573899h62.727291v-127.50115L677.464975 459.774158c-2.660538 1.739582-5.62806 2.660538-8.697912 2.660538s-6.037374-0.920955-8.697911-2.660538l-22.61457-15.144599V572.130709z m-391.917658 0h360.605177v-156.767064c0-5.832717 3.172179-11.051464 8.288598-13.81433 5.116419-2.762866 11.256121-2.455881 16.065554 0.818627l38.373138 25.582093 38.373139-25.582093c2.660538-1.739582 5.62806-2.660538 8.697912-2.660537 2.558209 0 5.116419 0.61397 7.367642 1.84191 5.116419 2.762866 8.288598 8.083941 8.288598 13.81433V572.130709h47.071051v-376.261418h-533.130809V572.130709zM292.505646 493.747177h235.150595c8.697911 0 15.656241 7.060658 15.65624 15.656241s-6.958329 15.656241-15.65624 15.65624H292.505646c-8.697911 0-15.656241-7.060658-15.656241-15.65624s7.060658-15.656241 15.656241-15.656241zM292.505646 431.019886h235.150595c8.697911 0 15.656241 7.060658 15.65624 15.656241s-6.958329 15.656241-15.65624 15.65624H292.505646c-8.697911 0-15.656241-7.060658-15.656241-15.65624s7.060658-15.656241 15.656241-15.656241zM292.505646 368.292595h235.150595c8.697911 0 15.656241 6.958329 15.65624 15.656241s-6.958329 15.656241-15.65624 15.65624H292.505646c-8.697911 0-15.656241-6.958329-15.656241-15.65624 0-8.595583 7.060658-15.656241 15.656241-15.656241zM731.494354 336.980114h-438.988708c-8.697911 0-15.656241-6.958329-15.656241-15.656241s7.060658-15.656241 15.656241-15.65624h438.988708c8.697911 0 15.656241 6.958329 15.656241 15.65624s-6.958329 15.656241-15.656241 15.656241zM731.494354 274.252823h-438.988708c-8.697911 0-15.656241-6.958329-15.656241-15.656241s7.060658-15.656241 15.656241-15.65624h438.988708c8.697911 0 15.656241 6.958329 15.656241 15.65624s-6.958329 15.656241-15.656241 15.656241z"  horiz-adv-x="1024" />

    
    <glyph glyph-name="baohanshenqing" unicode="&#58900;" d="M241.066667 716.8l51.2 6.4c-2.133333-2.133333-6.4-10.666667-12.8-21.333333-10.666667-17.066667-21.333333-38.4-32-61.866667-29.866667-68.266667-46.933333-142.933333-46.933334-221.866667 0-115.2 59.733333-204.8 157.866667-275.2 36.266667-25.6 74.666667-46.933333 113.066667-61.866666 12.8-6.4 25.6-10.666667 36.266666-14.933334 6.4-2.133333 10.666667-4.266667 12.8-4.266666h-23.466666c2.133333 0 6.4 2.133333 12.8 4.266666 10.666667 4.266667 23.466667 8.533333 36.266666 14.933334 38.4 17.066667 76.8 38.4 113.066667 64 100.266667 70.4 160 162.133333 160 275.2 0 70.4-17.066667 142.933333-46.933333 215.466666-10.666667 25.6-21.333333 49.066667-32 68.266667-6.4 10.666667-10.666667 19.2-12.8 23.466667 0 0 2.133333 0 2.133333 2.133333l46.933333-4.266667c2.133333-2.133333 2.133333-6.4 4.266667-8.533333-8.533333-6.4-19.2-14.933333-32-21.333333-72.533333-40.533333-160-40.533333-247.466667 25.6l46.933334-2.133334c-96-64-192-64-273.066667-25.6-17.066667 8.533333-29.866667 17.066667-40.533333 23.466667 4.266667-2.133333 6.4-2.133333 6.4 0zM160 416C160 614.4 260.266667 746.666667 260.266667 746.666667s117.333333-98.133333 268.8 0c134.4-98.133333 234.666667 0 234.666666 0s100.266667-155.733333 100.266667-330.666667C864 123.733333 512 21.333333 512 21.333333S160 121.6 160 416z m0 0M480 439.466667h-68.266667c-10.666667 0-21.333333-8.533333-21.333333-19.2s8.533333-19.2 21.333333-19.2h87.466667v-51.2h-87.466667c-10.666667 0-21.333333-8.533333-21.333333-19.2s8.533333-19.2 21.333333-19.2h87.466667v-85.333334c0-10.666667 8.533333-19.2 21.333333-19.2 10.666667 0 21.333333 8.533333 21.333334 19.2v85.333334h87.466666c10.666667 0 21.333333 8.533333 21.333334 19.2s-8.533333 19.2-21.333334 19.2h-87.466666v51.2h87.466666c10.666667 0 21.333333 8.533333 21.333334 19.2s-8.533333 19.2-21.333334 19.2H554.666667l59.733333 93.866666c6.4 8.533333 2.133333 21.333333-6.4 27.733334-8.533333 6.4-21.333333 2.133333-27.733333-6.4l-74.666667-115.2h21.333333L448 556.8c-6.4 8.533333-19.2 10.666667-27.733333 4.266667s-10.666667-19.2-4.266667-27.733334l64-93.866666z m0 0"  horiz-adv-x="1024" />

    
    <glyph glyph-name="invoice1" unicode="&#58880;" d="M784.54483829 1.6506994699999495a35.12859054 35.12859054 0 1 1 70.25718107 0 35.12859054 35.12859054 0 0 1-70.25718107 0M923.29172419 1.6506994699999495a35.12859054 35.12859054 0 1 1 70.25718108 0 35.12859054 35.12859054 0 0 1-70.25718108 0M927.79878864 143.09298665999995a35.12859054 35.12859054 0 1 1 70.25718108 0 35.12859054 35.12859054 0 0 1-70.25718108 0M839.46916286 408.87722827h-192.78747235a31.94713328 31.94713328 0 0 0-31.54945112 31.54945112c0 17.10033275 14.40493147 31.54945113 31.54945112 31.54945114h192.78747235c17.10033275 0 31.54945113-14.40493147 31.54945112-31.54945114a31.3727035 31.3727035 0 0 0-31.54945112-31.54945112zM776.41444752 273.75366868000003h-129.73275701c-17.10033275 0-31.54945113 14.40493147-31.54945112 31.54945114s14.40493147 31.54945113 31.54945112 31.54945111h129.73275701c17.10033275 0 31.54945113-14.40493147 31.54945114-31.54945111s-13.52119333-31.54945113-31.54945114-31.54945114zM702.53394013-31.666227909999975H129.56232565A104.19272514 104.19272514 0 0 0 25.94403028 71.95206744999996V716.10878803a104.19272514 104.19272514 0 0 0 103.61829537 103.61829536h51.34518516c14.40493147 0 27.92612481-9.89786702 30.6215261-24.30279848a48.20791482 48.20791482 0 0 1 93.67624144 0 31.68201184 31.68201184 0 0 0 30.62152608 24.30279848h108.1253598c14.40493147 0 27.92612481-9.89786702 30.62152611-24.30279848a48.20791482 48.20791482 0 0 1 93.67624143 0 31.68201184 31.68201184 0 0 0 30.62152608 24.30279848h99.11123092c14.40493147 0 27.92612481-9.89786702 30.62152609-24.30279848a48.1637279 48.1637279 0 0 1 93.67624145 0 31.68201184 31.68201184 0 0 0 30.62152609 24.30279848h38.75191685a104.19272514 104.19272514 0 0 0 103.61829536-103.61829536v-445.05052063a31.94713328 31.94713328 0 0 0-31.54945112-31.54945113 31.94713328 31.94713328 0 0 0-31.54945112 31.54945113V716.10878803a40.34264547 40.34264547 0 0 1-40.56358002 40.51939311h-17.10033276c-18.02825779-36.9402537-55.8522496-62.17097723-99.11123092-62.17097721s-81.08297313 24.30279849-99.1112309 62.17097721h-54.96851149c-18.02825779-36.9402537-55.8522496-62.17097723-99.11123092-62.17097721s-81.08297313 24.30279849-99.11123092 62.17097721H359.11330407c-18.02825779-36.9402537-55.8522496-62.17097723-99.11123092-62.17097721s-81.08297313 24.30279849-99.1112309 62.17097721h-29.51685344a40.34264547 40.34264547 0 0 1-40.51939311-40.51939311v-644.15672058c0-22.53532223 18.02825779-40.51939311 40.51939311-40.51939312h573.01580138c17.10033275 0 31.54945113-14.40493147 31.54945113-31.54945112-0.04418691-17.14451966-16.26078154-31.54945113-33.40530119-31.54945112zM335.25237466 391.42340027v-63.85007966h113.33941475a22.84463057 22.84463057 0 0 0 0-45.68926115H335.25237466v-71.62697518a22.84463057 22.84463057 0 0 0-45.77763498 0v71.62697518H176.13532492a22.80044368 22.80044368 0 1 0 0 45.68926115h113.33941476v63.85007966H176.13532492a22.80044368 22.80044368 0 1 0 0 45.68926116h105.47414543l-120.40931977 103.48573462a22.80044368 22.80044368 0 0 0 29.87034869 34.42160006l121.3372448-104.28109897 121.2930579 104.28109897a22.80044368 22.80044368 0 0 0 29.87034869-34.42160006l-120.40931978-103.48573462h105.47414543a22.84463057 22.84463057 0 0 0 0-45.68926116H335.25237466z"  horiz-adv-x="1024" />

    
    <glyph glyph-name="liucheng-" unicode="&#58909;" d="M227.6 679.2c1.2 0.4 2.4 0.5 3.7 0.5h568c6.3 0.2 12.1-5.6 12-11.9v-610.1c-0.2-4.1 0.8-8.6-1.7-12.2-2.3-3.8-6.8-6.3-11.4-5.8h-562c-3.3 0.1-6.8-0.6-9.8 1-4.1 2-7.3 6.3-7.1 11v616c-0.3 5.2 3.5 9.9 8.3 11.5z m17.3-25.5v-588h540.7v588h-89.3c-6 0.3-12 0.3-18 0H244.9zM361.3 599.5c16 2.4 32.9-1.2 46.4-10.3 10.4-6.8 18.8-16.6 24.1-27.9 8.5-18.2 8.2-40.3-0.9-58.3-5.9-11.8-15.3-21.7-26.7-28.3-13.5-7.8-29.8-10.5-45.1-7.7-18.2 3.1-34.6 14.5-44.5 30-8.6 13.3-12 29.8-9.8 45.5 3.5 28.7 27.8 53.3 56.5 57z m2.1-26c-18.6-3.2-33.7-20.8-33.2-39.8-0.7-14 7-27.9 18.7-35.3 8.4-5.5 18.9-7.6 28.7-5.9 11.9 1.9 22.8 9.5 28.8 19.9 5 8.4 6.7 18.7 4.9 28.3-2.1 11.9-10 22.6-20.5 28.5-8.2 4.6-18.1 6.1-27.4 4.3zM479.4 545.4c2.2 0.7 4.6 0.6 6.9 0.7 75.6-0.1 151.2 0.1 226.8-0.1 7.6 0.5 14.2-6.9 13.1-14.3-0.5-6.5-6.5-11.8-13-11.6h-230c-5.8 0-11.3 4.4-12.4 10.1-1.6 6.3 2.3 13.4 8.6 15.2zM344.6 420.2c16.9 7.3 36.9 7.2 53.6-0.4 19.6-8.7 34.4-27.3 38.4-48.4 60.2 0.2 120.3 0 180.5 0.1 5.6 0.3 11.3-3.2 13.1-8.6 2.1-5.5-0.2-12-5-15.3-2.6-1.9-5.9-2.2-9.1-2.2-59.9 0.1-119.8-0.1-179.7 0.1-4.6-27.9-29.3-50.7-57.3-53.8-15-1.9-30.6 1.4-43.4 9.5-15.4 9.5-26.8 25.5-30.3 43.3-3.4 16.5-0.6 34.2 8.2 48.6 7.3 12 18.2 21.6 31 27.1z m19.2-21.2c-12.4-2.1-23.5-10.4-29.2-21.6-4.4-7.9-5.1-17.2-4-26 2-11.8 9.4-22.5 19.8-28.5 10.6-6.4 24.1-7.3 35.5-2.8 16.6 6.3 27.8 24.1 26 41.7-0.9 12.3-7.7 23.9-17.9 30.7-8.7 6-19.8 8.4-30.2 6.5zM663.6 371.1c15.5 0.8 31.1 0.1 46.6 0.3 4.3 0.2 9.1-0.3 12.1-3.6 5.2-4.6 5.4-13.7 0.3-18.5-2.4-2.6-5.9-3.9-9.4-3.8-15-0.2-30 0-45-0.1-3.8-0.2-7.8 0.7-10.5 3.5-4.4 3.8-5.4 10.8-2.6 15.8 1.6 3.3 4.9 5.6 8.5 6.4zM344.8 248.2c16.4 7 35.5 7.1 51.9 0.2 20.3-8.5 36-27.5 39.8-49.2 14.2 0.5 28.4 0.1 42.6 0.2h234c6.5 0.2 12.5-5.1 13-11.5 1.1-7.4-5.5-14.8-13-14.4-52.7-0.2-105.3 0-158-0.1-39.5 0.1-79.1-0.1-118.6 0.1-4.7-27.5-28.7-50.2-56.3-53.6-15.8-2.2-32.4 1.3-45.6 10.2-13.9 9.1-24.4 23.5-28.5 39.7-4.4 17.3-1.8 36.3 7.6 51.5 7.3 11.8 18.3 21.4 31.1 26.9z m20.9-21.1c-19.7-2.2-36.2-20.6-35.5-40.5-1-20.3 15.9-39.3 36.1-41.2 12.2-1.5 24.9 2.9 33.5 11.6 9 8.8 13.5 21.8 11.9 34.3-1.4 12.3-8.9 23.8-19.5 30.1-7.8 5-17.4 6.9-26.5 5.7z"  horiz-adv-x="1024" />

    
    <glyph glyph-name="zongchengbaoleihetong" unicode="&#58926;" d="M778.24-25.6c-113.11104 0-204.8 91.68896-204.8 204.8s91.68896 204.8 204.8 204.8 204.8-91.68896 204.8-204.8-91.68896-204.8-204.8-204.8z m0 368.64a163.84 163.84 0 1 1 0-327.68 163.84 163.84 0 0 1 0 327.68z m63.2832-266.24L778.24 107.99104 714.9568 76.8l8.68352 72.92928L675.84 203.3664l68.64896 13.88544L778.24 281.6l33.75104-64.36864L880.64 203.3664l-47.80032-53.63712L841.5232 76.8zM184.32 158.72v40.96h307.2l-61.44-40.96H184.32z m0 532.48h532.48v-40.96H184.32v40.96z m0-245.76h430.08v-40.96H184.32v40.96zM839.68 752.64a81.92 81.92 0 0 1-81.92 81.92H143.36a81.92 81.92 0 0 1-81.92-81.92v-696.32a81.92 81.92 0 0 1 81.92-81.92h491.52v-61.44H81.92a81.92 81.92 0 0 0-81.92 81.92V814.08a81.92 81.92 0 0 0 81.92 81.92h737.28a81.92 81.92 0 0 0 81.92-81.92v-389.12h-61.44V752.64z"  horiz-adv-x="1024" />

    
    <glyph glyph-name="home" unicode="&#58885;" d="M977.92 372.736L620.544 825.856c-0.512 1.024-1.536 1.536-2.048 2.56-58.368 55.808-153.6 55.808-211.968 0-1.024-0.512-1.536-1.536-2.048-2.56l-358.4-453.12c-19.968-19.968-26.112-48.64-15.36-75.264 11.264-27.648 37.888-45.568 68.608-45.568h69.12V40.96c0-79.36 67.072-143.872 150.016-143.872h235.52c47.616 0 86.528 37.376 86.528 83.456V314.368c0 46.08-38.912 83.456-86.528 83.456h-84.48c-47.616 0-86.528-37.376-86.528-83.456v-269.824c0-12.8 10.24-23.04 23.04-23.04s23.04 10.24 23.04 23.04V314.368c0 20.48 17.92 37.376 40.448 37.376h84.48c22.016 0 40.448-16.896 40.448-37.376v-333.824c0-20.48-17.92-37.376-40.448-37.376h-235.52c-57.344 0-103.936 44.032-103.936 97.792V274.944c0 12.8-10.24 23.04-23.04 23.04h-92.16c-13.824 0-22.528 8.704-25.6 16.384-1.536 4.096-4.608 15.36 5.632 25.6 0.512 0.512 1.536 1.536 2.048 2.56l357.376 453.12c40.448 37.376 105.472 37.376 145.92 0L942.08 343.04c0.512-1.024 1.536-1.536 2.048-2.56 10.752-10.24 7.68-21.504 5.632-25.6-3.072-7.68-11.776-16.384-25.6-16.384H832c-12.8 0-23.04-10.24-23.04-23.04V-79.36c0-12.8 10.24-23.04 23.04-23.04s23.04 10.24 23.04 23.04V252.416h69.12c30.72 0 57.344 17.92 68.608 45.568 11.264 26.112 5.12 54.784-14.848 74.752z"  horiz-adv-x="1024" />

    
    <glyph glyph-name="fangdai" unicode="&#58929;" d="M734.460463-128h-316.509091V201.54181800000003c0 53.992727 44.683636 98.676364 98.676363 98.676364H633.922281c53.992727 0 98.676364-44.683636 98.676363-98.676364V-128z m-279.272728 37.236364h242.036364V201.54181800000003c0 33.512727-27.927273 61.44-61.44 61.44h-117.294546c-33.512727 0-61.44-27.927273-61.44-61.44V-90.76363600000002zM931.81319-128H239.216826c-52.130909 0-100.538182 48.407273-100.538182 100.538182v409.6l446.836364 370.501818 446.836364-370.501818v-409.6c0-52.130909-48.407273-100.538182-100.538182-100.538182zM175.915008 365.38181799999995v-392.843636c0-29.789091 31.650909-63.301818 63.301818-63.301818H931.81319c31.650909 0 63.301818 31.650909 63.301818 63.301818V365.38181799999995l-409.6 338.850909-409.6-338.850909zM976.496826 747.054545c11.170909 0 18.618182-7.447273 18.618182-18.618181v-167.563637c0-11.170909-7.447273-18.618182-18.618182-18.618182s-18.618182 7.447273-18.618182 18.618182V728.436364c0 11.170909 9.309091 18.618182 18.618182 18.618181zM1131.027735 393.309091c-9.309091 9.309091-545.512727 469.178182-545.512727 469.178182S71.65319 421.236364 60.482281 411.927273c-50.269091-42.821818-74.472727 0-52.130909 20.48L525.936826 873.658182c16.756364 14.894545 37.236364 22.341818 59.578182 22.341818 20.48 0 42.821818-7.447273 59.578182-22.341818l517.585454-441.250909c24.203636-29.789091-16.756364-55.854545-31.650909-39.098182z"  horiz-adv-x="1170" />

    
    <glyph glyph-name="moban-copy" unicode="&#58883;" d="M857.17045462 805.875H166.82954538C120.80681848 805.875 90.125 775.19318152 90.125 729.17045462v-134.23295462c0-46.0227269 30.68181848-76.70454538 76.70454538-76.70454538h690.34090924c46.0227269 0 76.70454538 30.68181848 76.70454538 76.70454538V729.17045462c0 46.0227269-30.68181848 76.70454538-76.70454538 76.70454538z m38.35227228-210.9375c0-24.9289769-13.42329538-38.3522731-38.35227228-38.3522731H166.82954538c-24.9289769 0-38.3522731 13.42329538-38.35227228 38.3522731V729.17045462c0 24.9289769 13.42329538 38.3522731 38.35227228 38.35227228h690.34090924c24.9289769 0 38.3522731-13.42329538 38.35227228-38.35227228v-134.23295462z m-575.28409077-172.5852269H166.82954538c-46.0227269 0-76.70454538-30.68181848-76.70454538-76.7045462v-306.81818152c0-46.0227269 30.68181848-76.70454538 76.70454538-76.70454538h153.40909075c46.0227269 0 76.70454538 30.68181848 76.70454539 76.70454538V345.64772689999995c1.91761387 47.94034075-30.68181848 76.70454538-76.70454539 76.7045462z m38.35227312-383.52272772c0-24.9289769-13.42329538-38.3522731-38.35227312-38.35227228H166.82954538c-24.9289769 0-38.3522731 13.42329538-38.35227228 38.35227228V345.64772689999995c0 24.9289769 13.42329538 38.3522731 38.35227228 38.3522731h153.40909075c24.9289769 0 38.3522731-13.42329538 38.35227311-38.3522731v-306.81818152z m556.10795462 383.52272772H531.17613613c-11.50568152 0-19.17613613-7.67045462-19.17613613-19.17613697s7.67045462-19.17613613 19.17613613-19.17613613h383.52272774c11.50568152 0 19.17613613 7.67045462 19.17613613 17.2585231 0 11.50568152-7.67045462 21.09375-19.17613613 21.09375z m0-210.9375H531.17613613c-11.50568152 0-19.17613613-7.67045462-19.17613613-19.17613697s7.67045462-19.17613613 19.17613613-19.17613613h383.52272774c11.50568152 0 19.17613613 7.67045462 19.17613613 19.17613613 0 9.58806848-7.67045462 19.17613613-19.17613613 19.17613697z m0-210.9375H531.17613613c-11.50568152 0-19.17613613-7.67045462-19.17613613-19.17613697s7.67045462-19.17613613 19.17613613-19.17613613h383.52272774c11.50568152 0 19.17613613 7.67045462 19.17613613 19.17613613s-9.58806848 19.17613613-19.17613613 19.17613697z"  horiz-adv-x="1024" />

    
    <glyph glyph-name="dianpu" unicode="&#58882;" d="M508.416 576.512c-102.912 0-186.368-83.456-186.368-186.368 0-102.912 83.456-186.368 186.368-186.368s186.368 83.456 186.368 186.368-83.456 186.368-186.368 186.368z m0-315.392c-71.168 0-129.024 57.856-129.024 129.024 0 71.168 57.856 129.024 129.024 129.024s129.024-57.856 129.024-129.024c0-70.656-57.856-129.024-129.024-129.024zM963.584 265.72799999999995l0.512 0.512c0.512 0.512 0.512 1.024 1.024 1.536 0 0.512 0.512 0.512 0.512 1.024s0.512 0.512 0.512 1.024 0.512 1.024 0.512 1.536c0 0.512 0 0.512 0.512 1.024 0 0.512 0.512 1.024 0.512 1.536v1.024c0 0.512 0.512 1.536 0.512 2.048 8.192 34.816 12.288 70.656 12.288 107.52s-4.096 72.704-12.288 107.52c0 0.512-0.512 1.536-0.512 2.048v1.024c0 0.512-0.512 1.024-0.512 1.536 0 0.512 0 0.512-0.512 1.024 0 0.512-0.512 1.024-0.512 1.536 0 0.512-0.512 1.024-0.512 1.024 0 0.512-0.512 0.512-0.512 1.024-0.512 0.512-0.512 1.024-1.024 1.536l-0.512 0.512-1.536 1.536-0.512 0.512-1.536 1.536-0.512 0.512c-0.512 0.512-1.024 1.024-1.536 1.024-0.512 0.512-1.024 0.512-1.536 1.024-0.512 0-0.512 0.512-1.024 0.512-0.512 0.512-1.024 0.512-1.536 1.024 0 0-0.512 0-0.512 0.512-0.512 0.512-1.024 0.512-2.048 1.024 0 0-0.512 0-0.512 0.512-0.512 0-1.024 0.512-1.536 0.512-0.512 0-0.512 0-1.024 0.512-0.512 0-1.024 0-1.024 0.512-0.512 0-1.024 0-1.536 0.512h-10.752c-61.44 0-111.616 50.176-111.616 111.616 0 22.016 6.144 43.008 17.92 60.928 0.512 1.024 1.024 2.048 1.536 3.584 0.512 0.512 0.512 1.024 1.024 1.536 0.512 1.024 0.512 2.048 1.024 3.072 0 1.024 0.512 1.536 0.512 2.56v2.048c0 1.024 0.512 2.048 0 3.072 0 1.024 0 2.048-0.512 2.56 0 1.024 0 2.048-0.512 2.56 0 1.024-0.512 2.048-1.024 3.072 0 0.512-0.512 1.536-0.512 2.048-0.512 0.512-0.512 1.536-1.024 2.048l-1.536 3.072c-0.512 0.512-1.024 1.024-1.024 1.536-1.024 1.024-1.536 2.048-2.56 3.072A469.5296 469.5296 0 0 1 646.656 834.56h-0.512c-0.512 0-1.024 0.512-1.536 0.512h-11.264c-0.512 0-1.024 0-1.536-0.512-0.512 0-1.024 0-1.024-0.512-0.512 0-1.024-0.512-1.536-0.512-0.512 0-1.024-0.512-1.024-0.512-0.512 0-1.024-0.512-1.536-0.512-0.512 0-1.024-0.512-1.024-0.512-0.512 0-1.024-0.512-1.024-0.512-0.512 0-1.024-0.512-1.024-0.512-0.512 0-0.512-0.512-1.024-0.512-0.512-0.512-1.024-0.512-1.024-1.024l-1.024-1.024-1.024-1.024-1.024-1.024-1.024-1.024-1.024-1.024-1.024-1.024c-0.512-0.512-0.512-1.024-1.024-1.536 0-0.512-0.512-0.512-0.512-1.024-0.512-0.512-0.512-1.024-1.024-1.536 0 0 0-0.512-0.512-0.512-18.432-38.912-57.344-64-100.864-64s-82.944 25.088-100.864 64c0 0 0 0.512-0.512 0.512 0 0.512-0.512 1.024-1.024 1.536 0 0.512-0.512 0.512-0.512 1.024-0.512 0.512-0.512 1.024-1.024 1.536 0 0.512-0.512 0.512-1.024 1.024l-1.024 1.024-1.024 1.024-1.024 1.024-1.024 1.024-1.024 1.024c-0.512 0.512-1.024 0.512-1.024 1.024-0.512 0-0.512 0.512-1.024 0.512-0.512 0.512-1.024 0.512-1.024 0.512-0.512 0-0.512 0.512-1.024 0.512s-1.024 0.512-1.024 0.512c-0.512 0-1.024 0.512-1.536 0.512-0.512 0-1.024 0.512-1.024 0.512-0.512 0-1.024 0.512-1.536 0.512-0.512 0-1.024 0-1.024 0.512-0.512 0-1.024 0-1.536 0.512h-11.264c-0.512 0-1.024 0-1.536-0.512h-0.512c-70.656-21.504-135.168-58.88-188.416-110.08v-0.512c-1.024-1.024-1.536-1.536-2.048-2.56-0.512-0.512-1.024-1.024-1.536-2.048-0.512-1.024-1.024-1.536-1.536-2.56-0.512-1.024-1.024-1.536-1.024-2.56-0.512-1.024-0.512-1.536-1.024-2.56s-0.512-2.048-1.024-2.56c0-1.024 0-2.048-0.512-2.56 0-1.024-0.512-2.048-0.512-2.56v-5.632c0-1.024 0.512-1.536 0.512-2.56 0.512-1.024 0.512-2.048 1.024-3.072 0.512-0.512 0.512-1.536 1.024-2.048l1.536-3.072v-0.512c12.288-17.92 18.432-39.424 18.432-61.952 0-61.44-50.176-111.616-111.616-111.616h-6.144-6.144c-0.512 0-1.024 0-1.536-0.512-0.512 0-1.024 0-1.536-0.512-0.512 0-1.024 0-1.024-0.512-0.512 0-1.024-0.512-1.536-0.512-0.512 0-0.512-0.512-1.024-0.512s-1.024-0.512-1.536-0.512c-0.512 0-0.512-0.512-1.024-0.512s-1.024-0.512-1.536-1.024c-0.512 0-0.512-0.512-1.024-0.512-0.512-0.512-1.024-0.512-1.024-1.024l-1.024-1.024-1.024-1.024-1.024-1.024-1.024-1.024c-0.512-0.512-0.512-1.024-1.024-1.024 0-0.512-0.512-0.512-0.512-1.024-0.512-0.512-0.512-1.024-1.024-1.024 0-0.512-0.512-0.512-0.512-1.024s-0.512-1.024-0.512-1.024c0-0.512-0.512-1.024-0.512-1.536 0-0.512-0.512-0.512-0.512-1.024s-0.512-1.024-0.512-1.536c0-0.512 0-0.512-0.512-1.024 0-0.512-0.512-1.024-0.512-1.536v-0.512C46.08 456.192 41.984 419.84 41.984 383.48800000000006s4.096-72.704 12.288-107.52v-0.512c0-0.512 0.512-1.024 0.512-1.536 0-0.512 0-0.512 0.512-1.024 0-0.512 0.512-1.024 0.512-1.536 0-0.512 0.512-0.512 0.512-1.024s0.512-1.024 0.512-1.536c0-0.512 0.512-1.024 0.512-1.024 0-0.512 0.512-0.512 0.512-1.024 0.512-0.512 0.512-1.024 1.024-1.024 0-0.512 0.512-0.512 0.512-1.024 0.512-0.512 0.512-1.024 1.024-1.024l1.024-1.024 1.024-1.024 1.024-1.024 1.024-1.024c0.512-0.512 1.024-0.512 1.024-1.024 0.512 0 0.512-0.512 1.024-0.512 0.512-0.512 1.024-0.512 1.536-1.024 0.512 0 0.512-0.512 1.024-0.512s1.024-0.512 1.536-0.512c0.512 0 0.512-0.512 1.024-0.512s1.024-0.512 1.536-0.512c0.512 0 1.024 0 1.024-0.512 0.512 0 1.024 0 1.536-0.512 0.512 0 1.024 0 1.536-0.512h11.776c61.44 0 111.616-50.176 111.616-111.616 0-22.528-6.656-43.52-18.432-61.952v-0.512l-1.536-3.072c-0.512-0.512-1.024-1.536-1.024-2.048-0.512-1.024-0.512-2.048-1.024-3.072 0-1.024-0.512-1.536-0.512-2.56v-5.632c0-1.024 0-2.048 0.512-2.56 0-1.024 0-2.048 0.512-2.56 0-1.024 0.512-2.048 1.024-2.56 0.512-1.024 0.512-1.536 1.024-2.56s1.024-1.536 1.024-2.56c0.512-1.024 1.024-1.536 1.536-2.56 0.512-0.512 1.024-1.024 1.536-2.048 0.512-1.024 1.536-1.536 2.048-2.56v-0.512c53.248-50.688 117.76-88.576 188.416-110.08h0.512c0.512 0 1.024-0.512 1.536-0.512H389.12c0.512 0 1.024 0 1.536 0.512 0.512 0 1.024 0 1.024 0.512 0.512 0 1.024 0.512 1.536 0.512 0.512 0 1.024 0.512 1.024 0.512 0.512 0 1.024 0.512 1.536 0.512 0.512 0 1.024 0.512 1.024 0.512 0.512 0 1.024 0.512 1.024 0.512 0.512 0 1.024 0.512 1.024 0.512 0.512 0 0.512 0.512 1.024 0.512 0.512 0.512 1.024 0.512 1.024 1.024l1.024 1.024 1.024 1.024 1.024 1.024 1.024 1.024 1.024 1.024 1.024 1.024c0.512 0.512 0.512 1.024 1.024 1.536 0 0.512 0.512 0.512 0.512 1.024 0.512 0.512 0.512 1.024 1.024 1.536 0 0 0 0.512 0.512 0.512 18.432 38.912 57.344 64 100.864 64s82.944-25.088 100.864-64c0 0 0-0.512 0.512-0.512 0-0.512 0.512-1.024 1.024-1.536 0-0.512 0.512-0.512 0.512-1.024 0.512-0.512 0.512-1.024 1.024-1.536 0-0.512 0.512-0.512 1.024-1.024l1.024-1.024 1.024-1.024 1.024-1.024 1.024-1.024 1.024-1.024c0.512-0.512 1.024-0.512 1.024-1.024 0.512 0 0.512-0.512 1.024-0.512 0.512-0.512 1.024-0.512 1.024-0.512 0.512 0 1.024-0.512 1.024-0.512 0.512 0 1.024-0.512 1.024-0.512 0.512 0 1.024-0.512 1.536-0.512 0.512 0 1.024-0.512 1.024-0.512 0.512 0 1.024-0.512 1.536-0.512 0.512 0 1.024 0 1.024-0.512 0.512 0 1.024 0 1.536-0.512h11.264c0.512 0 1.024 0 1.536 0.512h0.512c71.168 21.504 136.192 59.392 189.952 111.104 1.024 1.024 1.536 2.048 2.56 3.072 0.512 0.512 1.024 1.024 1.024 1.536l1.536 3.072c0.512 0.512 1.024 1.536 1.024 2.048 0.512 0.512 0.512 1.536 0.512 2.048 0.512 1.024 0.512 2.048 1.024 3.072 0 1.024 0 2.048 0.512 2.56 0 1.024 0.512 1.536 0.512 2.56v3.072 2.048c0 1.024-0.512 1.536-0.512 2.56-0.512 1.024-0.512 2.048-1.024 3.072 0 0.512-0.512 1.024-1.024 1.536-0.512 1.024-1.024 2.56-2.048 3.584-11.776 17.92-17.92 38.912-17.92 60.928 0 61.44 50.176 111.616 111.616 111.616h10.752c0.512 0 1.024 0 1.536 0.512 0.512 0 1.024 0 1.536 0.512 0.512 0 0.512 0 1.024 0.512 0.512 0 1.024 0.512 1.536 0.512 0 0 0.512 0 0.512 0.512 0.512 0.512 1.024 0.512 2.048 1.024 0 0 0.512 0 0.512 0.512 0.512 0.512 1.024 0.512 2.048 1.024 0.512 0 0.512 0.512 1.024 0.512 0.512 0.512 1.024 0.512 1.536 1.024 0.512 0.512 1.024 0.512 1.536 1.024 0.512 0 0.512 0.512 1.024 0.512l1.536 1.536 0.512 0.512c0 2.56 0.512 3.072 1.024 3.584z m-197.632-122.88c0-24.576 5.12-48.64 15.36-70.656-37.888-32.768-81.92-58.88-129.024-75.776-30.72 46.08-82.944 74.752-140.288 74.752s-109.056-28.672-140.288-74.752c-46.592 16.896-90.112 42.496-127.488 74.752 10.24 22.016 15.872 46.592 15.872 71.68 0 88.064-67.584 160.256-153.6 168.448-4.096 24.064-6.656 48.128-6.656 72.704s2.048 49.152 6.656 72.704c86.016 7.68 153.6 80.384 153.6 168.448 0 25.088-5.632 49.664-15.872 71.68 37.888 32.256 80.896 57.856 127.488 74.752 30.72-46.08 82.944-74.752 140.288-74.752s109.056 28.672 140.288 74.752c47.104-16.896 91.136-43.008 129.024-75.776-10.24-22.016-15.36-45.568-15.36-70.656 0-87.552 66.56-159.232 151.552-167.936 4.096-24.064 6.656-48.128 6.656-73.216 0-24.576-2.048-49.152-6.656-73.216-84.992-8.704-151.552-80.384-151.552-167.936z"  horiz-adv-x="1024" />

    
    <glyph glyph-name="icon-fengongshangguanlihighlight" unicode="&#58884;" d="M1073.024 182.528c-59.456 86.272-199.232 225.6-399.936 231.808V521.472h89.472c14.912 0 29.824 12.352 29.824 24.704V743.36c0 12.352-14.912 24.64-29.824 24.64H517.312c-14.912 0-29.696-6.144-29.696-24.64v-197.184c0-12.352 14.912-24.704 29.696-24.704h87.808v-107.136c-206.272-6.208-345.984-139.392-398.016-231.808H93.696c-14.912 0-29.696-12.352-29.696-24.704v-197.184c0-12.352 14.912-24.64 29.696-24.64H331.52c14.848 0 29.76 12.352 29.76 24.64v197.184c0 12.352-14.912 24.704-29.76 24.704h-44.608c63.744 67.392 142.592 160.32 318.208 166.4v-166.848H517.312c-14.912 0-29.696-6.208-29.696-18.56v-202.88c0-12.352 14.912-24.64 29.696-24.64h237.824c14.912 0 29.76 12.352 29.76 24.64v197.184c0 12.352-14.848 24.704-29.76 24.704h-82.048v166.4c139.392 0 245.632-81.28 320.128-166.4h-44.8c-14.912 0-29.696-12.352-29.696-24.704v-197.184c0-12.352 14.912-24.64 29.696-24.64h237.824c14.848 0 29.76 12.352 29.76 24.64v197.184c0.128 18.56-14.784 24.704-29.696 24.704h-113.28z"  horiz-adv-x="1280" />

    
    <glyph glyph-name="gongchengguanli" unicode="&#59158;" d="M320 320v-256h384v256H320z m320-192h-256v128h256v-128zM960 512V704c0 35.2-28.8 64-64 64H448V832c0 35.2-28.8 64-64 64H211.2L64 732.8V512c-35.2 0-64-28.8-64-64v-512c0-35.2 28.8-64 64-64h896c35.2 0 64 28.8 64 64V448c0 35.2-28.8 64-64 64z m-64 192v-192h-192V704h192z m-256 0v-192h-192V704h192zM128 707.2L240 832H384v-320H128V707.2zM960-64H64V448h896v-512z"  horiz-adv-x="1024" />

    
    <glyph glyph-name="fenbaoguanli" unicode="&#59086;" d="M1024 152.774194a164.368516 164.368516 0 0 0-236.180645-148.645162 426.974968 426.974968 0 0 0-547.674839-30.72 164.665806 164.665806 0 0 0-169.125161 281.765162A434.90271 434.90271 0 0 0 66.064516 317.935484a429.221161 429.221161 0 0 0 264.258065 396.387097 165.16129 165.16129 0 0 0 330.32258 0 429.221161 429.221161 0 0 0 264.258065-396.387097c0-4.624516-0.660645-8.91871-0.660645-13.543226A165.458581 165.458581 0 0 0 1024 152.774194z m-957.935484-33.032259a99.096774 99.096774 0 1 1 99.096774 99.096775 99.096774 99.096774 0 0 1-99.096774-99.096775z m429.419355 693.67742a99.096774 99.096774 0 1 1 99.096774-99.096774 99.096774 99.096774 0 0 1-99.096774 99.096774z m150.957419-165.491613a165.16129 165.16129 0 0 0-302.245161 0A362.958452 362.958452 0 0 1 132.129032 317.935484c0-12.221935 0.660645-24.113548 1.651613-36.335484a164.203355 164.203355 0 0 0 159.215484-265.249032 362.462968 362.462968 0 0 1 441.64129 28.407742A164.533677 164.533677 0 0 0 858.83871 317.935484a362.727226 362.727226 0 0 1-212.39742 329.992258zM858.83871 251.870968a99.096774 99.096774 0 1 1 99.096774-99.096774 99.096774 99.096774 0 0 1-99.096774 99.096774z"  horiz-adv-x="1024" />

    
    <glyph glyph-name="jichuguanli" unicode="&#58966;" d="M1154.219653-68.809249h-29.595376V807.213873a88.786127 88.786127 0 0 1-88.786127 88.786127h-124.300578a88.786127 88.786127 0 0 1-88.786127-88.786127v-876.023122h-65.109827V588.208092a88.786127 88.786127 0 0 1-88.786127 88.786128H544.554913a88.786127 88.786127 0 0 1-88.786127-88.786128v-657.017341H384.739884V363.283237a88.786127 88.786127 0 0 1-88.786127 88.786127H171.653179a88.786127 88.786127 0 0 1-88.786127-88.786127v-432.092486H29.595376a29.595376 29.595376 0 0 1 0-59.190751h1124.624277a29.595376 29.595376 0 0 1 0 59.190751z m-822.751445 0H136.138728V351.445087a59.190751 59.190751 0 0 0 59.190752 59.190751h76.947977a59.190751 59.190751 0 0 0 59.190751-59.190751z m372.901734 0H509.040462V576.369942a59.190751 59.190751 0 0 0 59.190752 59.190752h76.947977a59.190751 59.190751 0 0 0 59.190751-59.190752z m366.982659 0h-195.32948V795.375723a59.190751 59.190751 0 0 0 59.190752 59.190751h76.947977a59.190751 59.190751 0 0 0 59.190751-59.190751z"  horiz-adv-x="1183" />

    
    <glyph glyph-name="tianjia2" unicode="&#58972;" d="M563.2 691.2H460.8v-256H204.8v-102.4h256v-256h102.4v256h256V435.2h-256z m307.2 204.8H153.6A153.6 153.6 0 0 1 0 742.4v-716.8a153.6 153.6 0 0 1 153.6-153.6h716.8a153.6 153.6 0 0 1 153.6 153.6V742.4a153.6 153.6 0 0 1-153.6 153.6z m102.4-819.2a153.6 153.6 0 0 0-153.6-153.6H204.8a153.6 153.6 0 0 0-153.6 153.6V691.2a153.6 153.6 0 0 0 153.6 153.6h614.4a153.6 153.6 0 0 0 153.6-153.6z"  horiz-adv-x="1024" />

    
    <glyph glyph-name="bianji1" unicode="&#58973;" d="M870.4 896H153.6A153.6 153.6 0 0 1 0 742.4v-716.8a153.6 153.6 0 0 1 153.6-153.6h716.8a153.6 153.6 0 0 1 153.6 153.6V742.4a153.6 153.6 0 0 1-153.6 153.6z m102.4-819.2a153.6 153.6 0 0 0-153.6-153.6H204.8a153.6 153.6 0 0 0-153.6 153.6V691.2a153.6 153.6 0 0 0 153.6 153.6h614.4a153.6 153.6 0 0 0 153.6-153.6zM713.2672 680.96a11.52 11.52 0 0 1-16.384 0L261.12 244.1728a10.9056 10.9056 0 0 1-2.7648-4.608l-45.568-141.0048a11.6736 11.6736 0 0 1 2.816-11.776 11.8272 11.8272 0 0 1 8.192-3.3792 10.24 10.24 0 0 1 3.5328 0.6144l140.5952 45.6704a11.5712 11.5712 0 0 1 4.608 2.816l435.6608 436.992a11.5712 11.5712 0 0 1 0 16.3328zM358.4 150.784l-116.4288-37.7856 37.7344 116.7872 26.2144 26.2144 78.6944-78.9504z m42.7008 42.8544l-78.8992 78.9504 316.3136 317.44 78.7456-79.0016z m332.8 333.6704L654.848 606.3104l50.176 50.3296 78.7456-78.9504z"  horiz-adv-x="1024" />

    
    <glyph glyph-name="huifu1" unicode="&#58974;" d="M870.4 896H153.6A153.6 153.6 0 0 1 0 742.4v-716.8a153.6 153.6 0 0 1 153.6-153.6h716.8a153.6 153.6 0 0 1 153.6 153.6V742.4a153.6 153.6 0 0 1-153.6 153.6z m102.4-819.2a153.6 153.6 0 0 0-153.6-153.6H204.8a153.6 153.6 0 0 0-153.6 153.6V691.2a153.6 153.6 0 0 0 153.6 153.6h614.4a153.6 153.6 0 0 0 153.6-153.6zM512 628.8896l41.984 41.8304a36.608 36.608 0 0 1 0 51.2 33.3312 33.3312 0 0 1-51.2 4.6592l-107.52-107.52a36.6592 36.6592 0 0 1 0-51.2l107.52-112.0768a36.352 36.352 0 1 1 51.2 51.2l-46.6944 46.7456h4.7104c121.4464 0 224.2048-102.7584 224.2048-224.256s-102.8096-223.744-224.2048-223.744-224.256 102.7584-224.256 224.2048a40.1408 40.1408 0 0 1-37.376 37.376 36.8128 36.8128 0 0 1-37.376-37.376c0-163.4816 135.4752-298.9056 298.9568-298.9056s298.9568 135.424 298.9568 298.9056c4.6592 168.192-130.816 298.9568-298.9568 298.9568z m0 0"  horiz-adv-x="1024" />

    
    <glyph glyph-name="shu-shanchu" unicode="&#58975;" d="M204.8 332.8h614.4V435.2H204.8zM870.4 896H153.6A153.6 153.6 0 0 1 0 742.4v-716.8a153.6 153.6 0 0 1 153.6-153.6h716.8a153.6 153.6 0 0 1 153.6 153.6V742.4a153.6 153.6 0 0 1-153.6 153.6z m102.4-819.2a153.6 153.6 0 0 0-153.6-153.6H204.8a153.6 153.6 0 0 0-153.6 153.6V691.2a153.6 153.6 0 0 0 153.6 153.6h614.4a153.6 153.6 0 0 0 153.6-153.6z"  horiz-adv-x="1024" />

    
    <glyph glyph-name="shu-shensuo" unicode="&#58976;" d="M205.824 484.352h257.28v-411.648h102.912V484.352h257.28V587.264H205.824zM874.752 896H154.368A154.368 154.368 0 0 1 0 741.632v-720.384A154.4192 154.4192 0 0 1 114.8928-128h799.3344A154.7264 154.7264 0 0 1 1024-18.2272V781.1072A154.4192 154.4192 0 0 1 874.752 896zM977.92 72.704a154.368 154.368 0 0 0-154.624-154.624H205.824a154.368 154.368 0 0 0-154.368 154.624V690.176A154.368 154.368 0 0 0 205.824 844.544h617.472A154.368 154.368 0 0 0 977.92 690.176z"  horiz-adv-x="1024" />

    
    <glyph glyph-name="bao-" unicode="&#58978;" d="M129.4848 853.8112l72.2944 9.0624c-3.0208-3.0208-9.0112-15.0528-18.0736-30.1056a783.0528 783.0528 0 0 1-111.4112-400.5888c0-162.6112 84.3264-289.1264 222.8736-388.5056a756.5824 756.5824 0 0 1 159.5904-87.3472c18.0736-9.0624 36.1472-15.0528 51.2-21.0944a116.5824 116.5824 0 0 1 18.0736-5.9904h-33.1264a114.7904 114.7904 0 0 1 18.0736 5.9904c15.0528 6.0416 33.1264 12.032 51.2 21.0944a940.0832 940.0832 0 0 1 159.6416 90.368c141.568 99.3792 225.8944 228.864 225.8944 388.5056 0 99.3792-24.1152 201.7792-66.56 304.1792a985.856 985.856 0 0 1-45.1584 96.4096 480.58368 480.58368 0 0 0-18.0736 33.1264 2.9184 2.9184 0 0 1 3.0208 2.9696l66.2528-5.9904c3.0208-3.0208 3.0208-9.0624 6.0416-12.0832a299.2128 299.2128 0 0 0-45.2096-30.1056c-102.4-57.1904-225.8432-57.1904-349.3376 36.1472l66.5088-3.0208c-135.5264-90.3168-271.0528-90.3168-385.4848-36.1472-24.1152 12.0832-42.1888 24.1152-57.2416 33.1264 6.0416-2.9696 9.0112-2.9696 9.0112 0zM15.0528 429.1584C15.0528 709.2736 156.6208 896 156.6208 896S322.2528 757.4528 536.1152 896c189.696-138.5472 331.264 0 331.264 0s141.568-219.8528 141.568-466.8416c0-412.6208-496.9472-557.1584-496.9472-557.1584S15.0528 13.568 15.0528 429.1584z m0 0M454.7584 459.6736H358.4c-15.0528 0-30.1056-12.032-30.1056-27.0848s12.032-27.136 30.1056-27.136h123.4944v-72.2944H358.4c-15.0528 0-30.1056-12.032-30.1056-27.0848s12.032-27.0848 30.1056-27.0848h123.4944V158.72c0-15.0528 12.032-27.136 30.1056-27.136 15.0528 0 30.1056 12.0832 30.1056 27.136v120.2688h123.4944c15.0528 0 30.1056 12.032 30.1056 27.0848s-12.032 27.0848-30.1056 27.0848h-123.4944V405.4528h123.4944c15.0528 0 30.1056 12.0832 30.1056 27.136s-12.032 27.0848-30.1056 27.0848h-105.4208l84.3264 132.5056c9.0624 12.0832 3.0208 30.1056-9.0112 39.168s-30.1568 3.0208-39.168-9.0624L490.9056 459.6736h30.1056L409.6 625.3056a28.0064 28.0064 0 1 1-45.1584-33.1264z m0 0"  horiz-adv-x="1024" />

    
    <glyph glyph-name="zhaobiaoguanli" unicode="&#59065;" d="M658.519057 177.568105a32.296741 32.296741 0 0 1-34.969182 28.430229H256.345033c-23.085346 0-34.969182-11.883836-34.969182-28.430229a32.808485 32.808485 0 0 1 34.969182-28.430229h367.204842a32.808485 32.808485 0 0 1 34.969182 28.430229zM876.97694 31.94847a64.366039 64.366039 0 1 1-64.36604-64.366039 64.195458 64.195458 0 0 1 64.36604 64.366039z m-100.699873 0a36.561275 36.561275 0 0 0 36.390694 36.390694 36.390694 36.390694 0 0 0 0-72.724527 36.561275 36.561275 0 0 0-36.390694 36.333833zM562.652324-49.816869H131.422606a57.599645 57.599645 0 0 0-57.201622 57.315342V784.098617A57.599645 57.599645 0 0 0 131.422606 841.41396h676.639458a57.599645 57.599645 0 0 0 57.201621-57.315343v-508.389361a27.29302 27.29302 0 1 1 54.52918 0V784.098617A111.901383 111.901383 0 0 1 807.948343 896h-676.639458A111.901383 111.901383 0 0 1 19.691804 784.098617v-776.600144a111.901383 111.901383 0 0 1 111.730802-111.901383h431.229718a27.29302 27.29302 0 0 1 0 54.586041zM705.88382 649.453051a26.781276 26.781276 0 0 1-24.563719 17.513022H292.053401a17.513021 17.513021 0 0 1-6.084069 0.682325h-1.990116a17.513021 17.513021 0 0 1-5.970348-0.682325h-19.90116v-20.98151a20.356044 20.356044 0 0 1-0.682326-6.311511v-363.906935a27.406741 27.406741 0 0 1 26.553834-27.975346h1.990116a27.406741 27.406741 0 0 1 26.553835 27.975346V400.404242h369.934144a27.23616 27.23616 0 0 1 24.563718 16.09151 27.747904 27.747904 0 0 1-3.980232 30.079183l-77.045922 96.662779 73.06569 75.56755a29.226276 29.226276 0 0 1 6.823255 30.647787zM572.375463 545.967016l82.333944-103.542895H312.693748V625.003054h336.045311zM1000.307274 54.408351l-81.139874 139.876729a29.112555 29.112555 0 0 1-24.506858 13.987673h-123.785218a20.981509 20.981509 0 1 1 0-41.963019h115.711033l72.724527-126.628241-72.724527-125.889056h-146.188239l-72.724527 126.628242 56.860459 97.913709a21.03837 21.03837 0 0 1-36.390694 20.98151l-60.84069-104.907547a28.430229 28.430229 0 0 1 0-27.975345l81.139874-139.876729a29.112555 29.112555 0 0 1 24.506858-13.987672h161.597423a29.112555 29.112555 0 0 1 24.506858 13.987672l81.139875 139.876729a28.430229 28.430229 0 0 1 0.11372 27.975345z"  horiz-adv-x="1024" />

    


  </font>
</defs>
</svg>
